<svg id="Слой_1" data-name="Слой 1" xmlns="http://www.w3.org/2000/svg" viewBox="0 0 300 300"><defs><style>.cls-1{fill:#9b9b9b;}.cls-1,.cls-2{fill-rule:evenodd;}.cls-2{fill:#47b7ee;}.cls-3{fill:#1a1a18;}.cls-4{fill:#33a8e0;}</style></defs><polygon class="cls-1" points="233.51 31.54 233.51 90.25 233.51 107.8 246.54 107.8 246.54 90.25 246.54 31.54 246.54 13.98 233.51 13.98 233.51 31.54"/><polygon class="cls-1" points="270.32 13.98 270.32 30.17 270.32 91.61 270.32 107.8 279.26 107.8 279.26 96.55 279.26 25.24 279.26 13.98 270.32 13.98"/><polygon class="cls-1" points="251.91 31.54 251.91 90.25 251.91 107.8 267.4 107.8 267.4 90.84 267.4 30.95 267.4 13.98 251.91 13.98 251.91 31.54"/><polygon class="cls-1" points="150.62 20.88 150.62 100.91 150.62 107.8 154.42 107.8 154.42 99.05 154.42 22.74 154.42 13.98 150.62 13.98 150.62 20.88"/><polygon class="cls-1" points="211.47 31.54 211.47 90.24 211.47 107.8 230.43 107.8 230.43 90.25 230.43 31.54 230.43 13.98 211.47 13.98 211.47 31.54"/><polygon class="cls-1" points="173.84 31 173.84 90.79 173.84 107.8 192.76 107.8 192.76 90.24 192.76 31.55 192.76 13.98 173.84 13.98 173.84 31"/><polygon class="cls-1" points="200.57 31.55 200.57 90.24 200.57 107.8 204.36 107.8 204.36 90.24 204.36 31.55 204.36 13.98 200.57 13.98 200.57 31.55"/><polygon class="cls-1" points="163.29 27.95 163.29 93.84 163.29 107.8 167.07 107.8 167.07 92.41 167.07 29.38 167.07 13.98 163.29 13.98 163.29 27.95"/><polygon class="cls-1" points="137.77 28.64 137.77 93.14 137.77 107.8 146.61 107.8 146.61 97.77 146.61 24.02 146.61 13.98 137.77 13.98 137.77 28.64"/><polygon class="cls-1" points="46.81 31.53 46.81 90.26 46.81 107.8 52.98 107.8 52.98 90.26 52.98 31.53 52.98 13.98 46.81 13.98 46.81 31.53"/><polygon class="cls-1" points="58.34 31.53 58.34 90.26 58.34 107.8 69.97 107.8 69.97 90.26 69.97 31.53 69.97 13.98 58.34 13.98 58.34 31.53"/><polygon class="cls-1" points="74.51 31.53 74.51 90.26 74.51 107.8 83.45 107.8 83.45 90.26 83.45 31.53 83.45 13.98 74.51 13.98 74.51 31.53"/><polygon class="cls-1" points="88.51 31.53 88.51 90.26 88.51 107.8 101.78 107.8 101.78 90.26 101.78 31.53 101.78 13.98 88.51 13.98 88.51 31.53"/><polygon class="cls-1" points="106.25 31.53 106.25 90.26 106.25 107.8 121.45 107.8 121.45 90.26 121.45 31.53 121.45 13.98 106.25 13.98 106.25 31.53"/><polygon class="cls-1" points="129.53 30.89 129.53 90.9 129.53 107.8 133.32 107.8 133.32 91.71 133.32 30.07 133.32 13.98 129.53 13.98 129.53 30.89"/><polygon class="cls-1" points="17.69 24.8 17.69 96.99 17.69 107.8 40.51 107.8 40.51 90.27 40.51 31.52 40.51 13.98 17.69 13.98 17.69 24.8"/><polygon class="cls-2" points="279.26 133.47 279.26 116.42 154.83 116.42 154.83 116.43 154.83 133.47 154.83 154.75 154.83 171.79 154.83 171.85 171.88 171.85 171.88 171.79 262 171.79 262 193.74 64.72 193.74 64.72 171.79 122.76 171.79 122.76 171.85 139.81 171.85 139.81 133.47 139.81 116.43 139.81 116.42 17.69 116.42 17.69 116.43 17.69 133.47 17.69 210.79 34.74 210.79 34.74 133.47 122.76 133.47 122.76 154.75 47.67 154.75 47.67 166.01 47.67 171.79 47.67 210.79 58.57 210.79 64.72 210.79 262 210.79 279.04 210.79 279.04 193.74 279.04 171.79 279.04 166.01 279.04 154.75 171.88 154.75 171.88 133.47 279.26 133.47"/><path class="cls-3" d="M17.56,260V230.31h20.8v14.85l-3,3L41.33,260H33.9L28,248.13H23.5V260Zm14.86-17.81v-5.94H23.5v5.94Z"/><path class="cls-3" d="M44.3,260V230.31h5.94V260Z"/><path class="cls-3" d="M53.21,260V230.31H74v5.94H59.15v17.81h8.92v-5.93h-3v-5.94H74V260Z"/><path class="cls-3" d="M77,260V230.31h5.94v11.88h8.91V230.31h5.94V260H91.83V248.13H82.92V260Z"/><path class="cls-3" d="M109.66,260V236.25h-8.92v-5.94h23.78v5.94H115.6V260Z"/><path class="cls-3" d="M127.48,260v-5.94h14.86v-5.93H127.48V230.31h20.8v5.94H133.43v5.94h14.85V260Z"/><path class="cls-3" d="M151.25,260V230.31h20.8v5.94H157.19v17.81h14.86V260Z"/><path class="cls-3" d="M175,260V230.31h20.8V260h-5.95V248.13H181V260Zm14.85-17.81v-5.94H181v5.94Z"/><path class="cls-3" d="M198.78,260V230.31h5.95l8.91,17.82V230.31h5.94V260h-5.94l-8.91-17.81V260Z"/><path class="cls-4" d="M222.55,260v-5.94h5.94V260Z"/><path class="cls-4" d="M231.46,260V230.31h20.8v14.85l-3,3L255.23,260H247.8l-5.94-11.87H237.4V260Zm14.86-17.81v-5.94H237.4v5.94Z"/><path class="cls-4" d="M258.2,260V230.31h5.94v23.75h8.92V230.31H279V260Z"/></svg>